ply
format ascii 1.0
comment Created by Blender 2.70 (sub 0) - www.blender.org, source file: ''
element vertex 130
property float x
property float y
property float z
property float nx
property float ny
property float nz
property float s
property float t
property uchar red
property uchar green
property uchar blue
element face 92
property list uchar uint vertex_indices
end_header
0.000000 -1.000001 -0.999999 0.000000 0.000000 -1.000000 1.000000 -0.000000 255 255 255
0.000000 0.999999 -1.000001 0.000000 0.000000 -1.000000 1.000000 1.000000 255 255 255
0.195090 0.999999 -0.980786 0.195074 0.000000 -0.980773 0.968750 1.000000 255 255 255
0.195090 -1.000001 -0.980785 0.195074 0.000000 -0.980773 0.968750 -0.000000 255 255 255
0.382683 0.999999 -0.923880 0.382672 0.000000 -0.923856 0.937500 1.000000 255 255 255
0.382683 -1.000001 -0.923879 0.382672 0.000000 -0.923856 0.937500 -0.000000 255 255 255
0.555570 0.999999 -0.831470 0.555559 0.000000 -0.831446 0.906250 1.000000 255 255 255
0.555570 -1.000000 -0.831469 0.555559 0.000000 -0.831446 0.906250 -0.000000 255 255 255
0.707107 1.000000 -0.707107 0.707083 0.000000 -0.707083 0.875000 1.000000 255 255 255
0.707107 -1.000000 -0.707106 0.707083 0.000000 -0.707083 0.875000 -0.000000 255 255 255
0.831470 1.000000 -0.555571 0.831446 0.000000 -0.555559 0.843750 1.000000 255 255 255
0.831470 -1.000000 -0.555570 0.831446 0.000000 -0.555559 0.843750 -0.000000 255 255 255
0.923880 1.000000 -0.382684 0.923856 0.000000 -0.382672 0.812500 1.000000 255 255 255
0.923880 -1.000000 -0.382683 0.923856 0.000000 -0.382672 0.812500 -0.000000 255 255 255
0.980785 1.000000 -0.195091 0.980773 0.000000 -0.195074 0.781250 1.000000 255 255 255
0.980785 -1.000000 -0.195090 0.980773 0.000000 -0.195074 0.781250 -0.000000 255 255 255
1.000000 1.000000 -0.000001 1.000000 0.000000 0.000000 0.750000 1.000000 255 255 255
1.000000 -1.000000 0.000001 1.000000 0.000000 0.000000 0.750000 -0.000000 255 255 255
0.980785 1.000000 0.195090 0.980773 0.000000 0.195074 0.718750 1.000000 255 255 255
0.980785 -1.000000 0.195091 0.980773 0.000000 0.195074 0.718750 -0.000000 255 255 255
0.923880 1.000000 0.382683 0.923856 0.000000 0.382672 0.687500 1.000000 255 255 255
0.923880 -1.000000 0.382684 0.923856 0.000000 0.382672 0.687500 -0.000000 255 255 255
0.831470 1.000000 0.555570 0.831446 0.000000 0.555559 0.656250 1.000000 255 255 255
0.831470 -1.000000 0.555571 0.831446 0.000000 0.555559 0.656250 -0.000000 255 255 255
0.707107 1.000000 0.707106 0.707083 0.000000 0.707083 0.625000 1.000000 255 255 255
0.707107 -1.000000 0.707107 0.707083 0.000000 0.707083 0.625000 -0.000000 255 255 255
0.555570 1.000000 0.831469 0.555559 0.000000 0.831446 0.593750 1.000000 255 255 255
0.555570 -0.999999 0.831470 0.555559 0.000000 0.831446 0.593750 -0.000000 255 255 255
0.382683 1.000001 0.923879 0.382672 0.000000 0.923856 0.562500 1.000000 255 255 255
0.382683 -0.999999 0.923880 0.382672 0.000000 0.923856 0.562500 -0.000000 255 255 255
0.195090 1.000001 0.980785 0.195074 0.000000 0.980773 0.531250 1.000000 255 255 255
0.195090 -0.999999 0.980786 0.195074 0.000000 0.980773 0.531250 0.000000 255 255 255
-0.000000 1.000001 0.999999 0.000000 0.000000 1.000000 0.500000 1.000000 255 255 255
-0.000000 -0.999999 1.000001 0.000000 0.000000 1.000000 0.500000 0.000000 255 255 255
-0.195091 1.000001 0.980785 -0.195074 0.000000 0.980773 0.468750 1.000000 255 255 255
-0.195091 -0.999999 0.980786 -0.195074 0.000000 0.980773 0.468750 0.000000 255 255 255
-0.382684 1.000001 0.923879 -0.382672 0.000000 0.923856 0.437500 1.000000 255 255 255
-0.382684 -0.999999 0.923880 -0.382672 0.000000 0.923856 0.437500 0.000000 255 255 255
-0.555571 1.000000 0.831469 -0.555559 0.000000 0.831446 0.406250 1.000000 255 255 255
-0.555571 -0.999999 0.831470 -0.555559 0.000000 0.831446 0.406250 0.000000 255 255 255
-0.707107 1.000000 0.707106 -0.707083 0.000000 0.707083 0.375000 1.000000 255 255 255
-0.707107 -1.000000 0.707107 -0.707083 0.000000 0.707083 0.375000 0.000000 255 255 255
-0.831470 1.000000 0.555569 -0.831446 0.000000 0.555559 0.343750 1.000000 255 255 255
-0.831470 -1.000000 0.555570 -0.831446 0.000000 0.555559 0.343750 0.000000 255 255 255
-0.923880 1.000000 0.382682 -0.923856 0.000000 0.382672 0.312500 1.000000 255 255 255
-0.923880 -1.000000 0.382683 -0.923856 0.000000 0.382672 0.312500 0.000000 255 255 255
-0.980785 1.000000 0.195089 -0.980773 0.000000 0.195074 0.281250 1.000000 255 255 255
-0.980785 -1.000000 0.195090 -0.980773 0.000000 0.195074 0.281250 0.000000 255 255 255
-1.000000 1.000000 -0.000002 -0.999969 0.000000 0.000000 0.250000 1.000000 255 255 255
-1.000000 -1.000000 -0.000000 -0.999969 0.000000 0.000000 0.250000 0.000000 255 255 255
-0.980785 1.000000 -0.195092 -0.980773 0.000000 -0.195074 0.218750 1.000000 255 255 255
-0.980785 -1.000000 -0.195091 -0.980773 0.000000 -0.195074 0.218750 0.000000 255 255 255
-0.923879 1.000000 -0.382685 -0.923856 0.000000 -0.382672 0.187500 1.000000 255 255 255
-0.923879 -1.000000 -0.382684 -0.923856 0.000000 -0.382672 0.187500 -0.000000 255 255 255
-0.831469 1.000000 -0.555572 -0.831446 0.000000 -0.555559 0.156250 1.000000 255 255 255
-0.831469 -1.000000 -0.555571 -0.831446 0.000000 -0.555559 0.156250 -0.000000 255 255 255
-0.707106 1.000000 -0.707108 -0.707083 0.000000 -0.707083 0.125000 1.000000 255 255 255
-0.707106 -1.000000 -0.707107 -0.707083 0.000000 -0.707083 0.125000 -0.000000 255 255 255
-0.555569 0.999999 -0.831471 -0.555559 0.000000 -0.831446 0.093750 1.000000 255 255 255
-0.555569 -1.000000 -0.831470 -0.555559 0.000000 -0.831446 0.093750 -0.000000 255 255 255
-0.382682 0.999999 -0.923881 -0.382672 0.000000 -0.923856 0.062500 1.000000 255 255 255
-0.382682 -1.000001 -0.923879 -0.382672 0.000000 -0.923856 0.062500 -0.000000 255 255 255
0.195090 0.999999 -0.980786 0.000000 0.999969 0.000000 0.968750 1.000000 255 255 255
0.000000 0.999999 -1.000001 0.000000 1.000000 0.000000 1.000000 1.000000 255 255 255
0.382683 0.999999 -0.923880 0.000000 1.000000 0.000000 0.937500 1.000000 255 255 255
-0.195089 0.999999 -0.980786 0.000000 1.000000 0.000000 1.031250 1.000000 255 255 255
-0.382682 0.999999 -0.923881 0.000000 0.999969 0.000000 1.062500 1.000000 255 255 255
-0.555569 0.999999 -0.831471 0.000000 1.000000 0.000000 1.093750 1.000000 255 255 255
-0.707106 1.000000 -0.707108 0.000000 1.000000 0.000000 1.125000 1.000000 255 255 255
-0.831469 1.000000 -0.555572 0.000000 0.999969 0.000000 1.156250 1.000000 255 255 255
-0.923879 1.000000 -0.382685 0.000000 0.999969 0.000000 1.187500 1.000000 255 255 255
-0.980785 1.000000 -0.195092 0.000000 0.999969 0.000000 1.218750 1.000000 255 255 255
-1.000000 1.000000 -0.000002 0.000000 0.999969 0.000000 1.250000 1.000000 255 255 255
-0.980785 1.000000 0.195089 0.000000 1.000000 0.000000 1.281250 1.000000 255 255 255
-0.923880 1.000000 0.382682 0.000000 0.999969 0.000000 1.312500 1.000000 255 255 255
-0.831470 1.000000 0.555569 0.000000 1.000000 0.000000 1.343750 1.000000 255 255 255
-0.707107 1.000000 0.707106 0.000000 1.000000 0.000000 1.375000 1.000000 255 255 255
-0.555571 1.000000 0.831469 0.000000 1.000000 0.000000 1.406250 1.000000 255 255 255
-0.382684 1.000001 0.923879 0.000000 1.000000 0.000000 1.437500 1.000000 255 255 255
-0.195091 1.000001 0.980785 0.000000 1.000000 0.000000 1.468750 1.000000 255 255 255
-0.000000 1.000001 0.999999 0.000000 0.999969 0.000000 0.500000 1.000000 255 255 255
0.195090 1.000001 0.980785 0.000000 1.000000 0.000000 0.531250 1.000000 255 255 255
0.382683 1.000001 0.923879 0.000000 0.999969 0.000000 0.562500 1.000000 255 255 255
0.555570 1.000000 0.831469 0.000000 0.999969 0.000000 0.593750 1.000000 255 255 255
0.707107 1.000000 0.707106 0.000000 1.000000 0.000000 0.625000 1.000000 255 255 255
0.831470 1.000000 0.555570 0.000000 1.000000 0.000000 0.656250 1.000000 255 255 255
0.923880 1.000000 0.382683 0.000000 1.000000 0.000000 0.687500 1.000000 255 255 255
0.980785 1.000000 0.195090 0.000000 0.999969 0.000000 0.718750 1.000000 255 255 255
1.000000 1.000000 -0.000001 0.000000 0.999969 0.000000 0.750000 1.000000 255 255 255
0.980785 1.000000 -0.195091 0.000000 0.999969 0.000000 0.781250 1.000000 255 255 255
0.923880 1.000000 -0.382684 0.000000 0.999969 0.000000 0.812500 1.000000 255 255 255
0.831470 1.000000 -0.555571 0.000000 0.999969 0.000000 0.843750 1.000000 255 255 255
0.707107 1.000000 -0.707107 0.000000 1.000000 0.000000 0.875000 1.000000 255 255 255
0.555570 0.999999 -0.831470 0.000000 0.999969 0.000000 0.906250 1.000000 255 255 255
0.000000 0.999999 -1.000001 0.000000 0.000000 -1.000000 0.000000 1.000000 255 255 255
0.000000 -1.000001 -0.999999 0.000000 0.000000 -1.000000 0.000000 -0.000000 255 255 255
-0.195089 -1.000001 -0.980785 -0.195074 0.000000 -0.980773 0.031250 -0.000000 255 255 255
-0.195089 0.999999 -0.980786 -0.195074 0.000000 -0.980773 0.031250 1.000000 255 255 255
0.000000 -1.000001 -0.999999 0.000000 -1.000000 0.000000 1.000000 -0.000000 255 255 255
0.195090 -1.000001 -0.980785 0.000000 -1.000000 0.000000 0.968750 -0.000000 255 255 255
-0.195089 -1.000001 -0.980785 0.000000 -1.000000 0.000000 1.031250 -0.000000 255 255 255
0.382683 -1.000001 -0.923879 0.000000 -1.000000 0.000000 0.937500 -0.000000 255 255 255
0.555570 -1.000000 -0.831469 0.000000 -0.999969 0.000000 0.906250 -0.000000 255 255 255
0.707107 -1.000000 -0.707106 0.000000 -1.000000 0.000000 0.875000 -0.000000 255 255 255
0.831470 -1.000000 -0.555570 0.000000 -1.000000 0.000000 0.843750 -0.000000 255 255 255
0.923880 -1.000000 -0.382683 0.000000 -1.000000 0.000000 0.812500 -0.000000 255 255 255
0.980785 -1.000000 -0.195090 0.000000 -1.000000 0.000000 0.781250 -0.000000 255 255 255
1.000000 -1.000000 0.000001 0.000000 -0.999969 0.000000 0.750000 -0.000000 255 255 255
0.980785 -1.000000 0.195091 0.000000 -1.000000 0.000000 0.718750 -0.000000 255 255 255
0.923880 -1.000000 0.382684 0.000000 -0.999969 0.000000 0.687500 -0.000000 255 255 255
0.831470 -1.000000 0.555571 0.000000 -1.000000 0.000000 0.656250 -0.000000 255 255 255
0.707107 -1.000000 0.707107 0.000000 -1.000000 0.000000 0.625000 -0.000000 255 255 255
0.555570 -0.999999 0.831470 0.000000 -0.999969 0.000000 0.593750 -0.000000 255 255 255
0.382683 -0.999999 0.923880 0.000000 -1.000000 0.000000 0.562500 -0.000000 255 255 255
0.195090 -0.999999 0.980786 0.000000 -0.999969 0.000000 0.531250 0.000000 255 255 255
-0.000000 -0.999999 1.000001 0.000000 -1.000000 0.000000 0.500000 0.000000 255 255 255
-0.195091 -0.999999 0.980786 0.000000 -0.999969 0.000000 1.468750 0.000000 255 255 255
-0.382684 -0.999999 0.923880 0.000000 -1.000000 0.000000 1.437500 0.000000 255 255 255
-0.555571 -0.999999 0.831470 0.000000 -1.000000 0.000000 1.406250 0.000000 255 255 255
-0.707107 -1.000000 0.707107 0.000000 -1.000000 0.000000 1.375000 0.000000 255 255 255
-0.831470 -1.000000 0.555570 0.000000 -1.000000 0.000000 1.343750 0.000000 255 255 255
-0.923880 -1.000000 0.382683 0.000000 -1.000000 0.000000 1.312500 0.000000 255 255 255
-0.980785 -1.000000 0.195090 0.000000 -1.000000 0.000000 1.281250 0.000000 255 255 255
-1.000000 -1.000000 -0.000000 0.000000 -1.000000 0.000000 1.250000 0.000000 255 255 255
-0.980785 -1.000000 -0.195091 0.000000 -1.000000 0.000000 1.218750 0.000000 255 255 255
-0.923879 -1.000000 -0.382684 0.000000 -1.000000 0.000000 1.187500 -0.000000 255 255 255
-0.831469 -1.000000 -0.555571 0.000000 -1.000000 0.000000 1.156250 -0.000000 255 255 255
-0.707106 -1.000000 -0.707107 0.000000 -1.000000 0.000000 1.125000 -0.000000 255 255 255
-0.555569 -1.000000 -0.831470 0.000000 -1.000000 0.000000 1.093750 -0.000000 255 255 255
-0.382682 -1.000001 -0.923879 0.000000 -1.000000 0.000000 1.062500 -0.000000 255 255 255
4 0 1 2 3
4 3 2 4 5
4 5 4 6 7
4 7 6 8 9
4 9 8 10 11
4 11 10 12 13
4 13 12 14 15
4 15 14 16 17
4 17 16 18 19
4 19 18 20 21
4 21 20 22 23
4 23 22 24 25
4 25 24 26 27
4 27 26 28 29
4 29 28 30 31
4 31 30 32 33
4 33 32 34 35
4 35 34 36 37
4 37 36 38 39
4 39 38 40 41
4 41 40 42 43
4 43 42 44 45
4 45 44 46 47
4 47 46 48 49
4 49 48 50 51
4 51 50 52 53
4 53 52 54 55
4 55 54 56 57
4 57 56 58 59
4 59 58 60 61
3 62 63 64
3 63 65 66
3 66 67 68
3 68 69 70
3 70 71 72
3 72 73 74
3 74 75 76
3 76 77 78
3 78 79 80
3 80 81 82
3 82 83 84
3 84 85 86
3 86 87 88
3 88 89 90
3 90 91 92
3 92 93 64
3 63 66 64
3 66 68 70
3 70 72 74
3 74 76 78
3 78 80 82
3 82 84 86
3 86 88 90
3 90 92 64
3 66 70 64
3 70 74 78
3 78 82 86
3 86 90 64
3 70 78 64
3 78 86 64
4 94 95 96 97
4 61 60 97 96
3 98 99 100
3 99 101 102
3 102 103 104
3 104 105 106
3 106 107 108
3 108 109 110
3 110 111 112
3 112 113 114
3 114 115 116
3 116 117 118
3 118 119 120
3 120 121 122
3 122 123 124
3 124 125 126
3 126 127 128
3 128 129 100
3 99 102 100
3 102 104 106
3 106 108 110
3 110 112 114
3 114 116 118
3 118 120 122
3 122 124 126
3 126 128 100
3 102 106 100
3 106 110 114
3 114 118 122
3 122 126 100
3 106 114 100
3 114 122 100
